<?xml version="1.0" encoding="UTF-8"?>
<svg xmlns="http://www.w3.org/2000/svg" xmlns:xlink="http://www.w3.org/1999/xlink" viewBox="0 0 308.62963 418.81738">
  <defs>
    <style>
      .cls-1, .cls-2 {
        font-family: NiagaraSolid-Reg, 'Niagara Solid';
        font-size: 400px;
      }

      .cls-1, .cls-3, .cls-4 {
        fill: #00cfff;
      }

      .cls-5 {
        fill: #fff;
      }

      .cls-6 {
        fill: #3ddeed;
      }

      .cls-7 {
        fill: url(#Blue_Sky);
      }

      .cls-3 {
        stroke: #00cfff;
        stroke-miterlimit: 10;
      }
    </style>
    <linearGradient id="Blue_Sky" data-name="Blue Sky" x1="20.62963" y1="199.37988" x2="308.62963" y2="199.37988" gradientUnits="userSpaceOnUse">
      <stop offset="0" stop-color="#3ddeed"/>
      <stop offset="1" stop-color="#3ddeed" stop-opacity="0"/>
    </linearGradient>
  </defs>
  <g id="bg">
    <rect class="cls-7" x="20.62963" y="55.37988" width="288" height="288"/>
  </g>
  <g id="R">
    <path class="cls-5" d="m145.25221,335.63507c-.41266.01556-.79755-.07037-1.16864-.20709-.41156-.08746-.80762-.23212-1.18359-.45013-.26984-.2085-.53967-.41699-.80957-.62543-.12714-.12799-.24347-.26227-.35046-.40198-.28925-.13068-.56201-.28955-.80029-.50757-.29443-.19073-.53101-.43927-.74133-.71423-.17969-.20349-.36023-.40631-.55231-.59845-.49579-.49908-.83868-1.08746-1.02869-1.76508-.04767-.35449-.09528-.70892-.14288-1.06335-.00031-.00696.00195-.01349.00171-.02039-1.42249-1.78503-2.15179-4.38092-2.15179-7.83118v-92.77344c0-17.05664-9.31104-29.49219-27.92969-37.30469,18.61865-7.29102,27.92969-19.65918,27.92969-37.10938v-54.10156c0-11.19678-4.6875-20.80078-14.0625-28.80859s-20.70312-12.01172-33.98438-12.01172h-55.85938v7.22656h9.96094v265.625h-9.96094v7.22656h51.95312v-7.22656h-9.96094v-137.10938h13.86719c4.4248,0,8.20312,1.5625,11.32812,4.6875s4.6875,6.90332,4.6875,11.32812v96.88397c2.11713-1.20996,5.07874-.77527,5.59399,2.2558,1.22076,7.18115.8089,14.16827,7.086,19.33447,1.87952,1.54694,4.56702,2.15997,6.73718,3.2984,2.62292,1.37592,5.80798,2.70282,8.71637,3.35114,1.87262.41742,2.7486,1.74835,2.85535,3.19653h11.0033v-3.94104c-.33032.10376-.67065.17084-1.03308.15717Zm-40.95911-163.79425c0,4.42822-1.5625,8.20312-4.6875,11.32812s-6.90332,4.6875-11.32812,4.6875h-13.86719v-121.28906h13.86719c4.4248,0,8.20312,1.5625,11.32812,4.6875s4.6875,6.90332,4.6875,11.32812v89.25781Z"/>
  </g>
  <g id="P">
    <text class="cls-2" transform="translate(67.40286 339.99594)"><tspan class="cls-5" x="0" y="0" xml:space="preserve">  </tspan><tspan class="cls-6" x="119.92188" y="0">P</tspan></text>
    <text/>
    <rect class="cls-6" x="193.12963" y="59.91452" width="10.83333" height="8.23007"/>
    <g id="J">
      <g>
        <text class="cls-1" transform="translate(36.59579 340.49694)"><tspan x="0" y="0" xml:space="preserve"> J</tspan></text>
        <text class="cls-2" transform="translate(36.59579 340.49694)"><tspan x="0" y="0"> </tspan><tspan class="cls-3" x="59.96094" y="0">J</tspan></text>
      </g>
      <text/>
      <rect class="cls-4" x="192.94444" y="59.91452" width="10.38889" height="8.23007"/>
    </g>
  </g>
</svg>